<?xml version="1.0" encoding="utf-8"?>
<!-- Generator: Adobe Illustrator 16.0.0, SVG Export Plug-In . SVG Version: 6.00 Build 0)  -->
<!DOCTYPE svg PUBLIC "-//W3C//DTD SVG 1.1//EN" "http://www.w3.org/Graphics/SVG/1.1/DTD/svg11.dtd">
<svg version="1.1" id="Layer_1" xmlns="http://www.w3.org/2000/svg" xmlns:xlink="http://www.w3.org/1999/xlink" x="0px" y="0px"
	 width="200px" height="200px" viewBox="0 0 200 200" enable-background="new 0 0 200 200" xml:space="preserve">
<g id="LkorhN_1_">
	<g>
		<path d="M76.767,84.686c-3.405-3.275-8.384-5.895-13.624-5.895c-4.061,0-8.122,1.441-8.122,5.24c0,3.668,3.537,4.716,11.921,6.55
			c9.955,2.227,20.828,7.205,20.828,19.911c0,16.506-14.541,22.27-27.902,22.27c-10.611,0-21.614-3.537-28.426-10.086l12.052-12.707
			c3.799,4.191,9.694,7.336,15.981,7.336c3.537,0,7.729-1.441,7.729-5.633c0-4.062-4.061-5.371-12.969-7.467
			c-9.039-2.096-18.995-6.681-18.995-18.995c0-15.588,14.672-21.876,27.116-21.876c9.694,0,19.781,3.144,26.2,9.17L76.767,84.686z"
			/>
		<path d="M141.741,132.5c-7.991,0-15.72-3.406-19.781-9.039h-0.262v38.645h-21.483V65.43h20.436v7.991h0.393
			c3.931-5.24,11.266-9.825,20.829-9.825c18.994,0,30.915,15.981,30.915,34.19S161.391,132.5,141.741,132.5z M136.632,81.149
			c-9.693,0-15.72,8.515-15.72,16.768c0,8.515,6.026,16.768,15.72,16.768c10.218,0,15.327-8.384,15.327-16.899
			C151.959,89.402,146.85,81.149,136.632,81.149z"/>
	</g>
</g>
</svg>
