<svg xmlns="http://www.w3.org/2000/svg" viewBox="0 0 344.3 80.2"><defs><style>.cls-1{fill:#363636;}</style></defs><title>Recurso 2</title><g id="Capa_2" data-name="Capa 2"><g id="Layer_1" data-name="Layer 1"><path class="cls-1" d="M43.8,38.5H74.9V70.4a49.83,49.83,0,0,1-15.2,7.3,59.66,59.66,0,0,1-17.2,2.5,46.12,46.12,0,0,1-21.8-5.1A38.09,38.09,0,0,1,5.5,60.8,39.09,39.09,0,0,1,0,40.1,39.09,39.09,0,0,1,5.5,19.4,38.12,38.12,0,0,1,20.8,5.2,47.11,47.11,0,0,1,42.9,0,50.05,50.05,0,0,1,62.3,3.6,36.74,36.74,0,0,1,76.6,14.1L62.7,26.6C57.5,20.9,51.3,18,44,18c-6.6,0-11.9,2-15.9,6.1S22,33.4,22,40a22.41,22.41,0,0,0,2.8,11.4,19.91,19.91,0,0,0,7.7,7.8A23.36,23.36,0,0,0,43.8,62a27.78,27.78,0,0,0,11.8-2.5l-.2-8.1H43.7ZM113,18.1c9.9,0,17.5,2.3,22.7,6.8s7.8,11.4,7.8,20.7V78.7H124V71c-3,5.8-8.9,8.7-17.6,8.7a27.93,27.93,0,0,1-12-2.4,18.4,18.4,0,0,1-7.7-6.5,17.74,17.74,0,0,1-2.5-9.5,15.29,15.29,0,0,1,6.5-13.1c4.3-3.2,11-4.7,20-4.7h11.9c-.4-6.3-4.6-9.5-12.7-9.5a29.29,29.29,0,0,0-8.7,1.4,23.9,23.9,0,0,0-7.5,3.7l-7-14.2a38.78,38.78,0,0,1,12-5.1A64.17,64.17,0,0,1,113,18.1Zm-.7,48.4a11.65,11.65,0,0,0,6.4-1.8,10.07,10.07,0,0,0,4-5.2V54.3h-9c-6.1,0-9.1,2-9.1,6.1a5.36,5.36,0,0,0,2.1,4.4A8.51,8.51,0,0,0,112.3,66.5ZM219.4,19.1V78.7H199.5V72.3a20.88,20.88,0,0,1-7.9,5.5,26.72,26.72,0,0,1-9.8,1.9c-7.7,0-13.9-2.3-18.5-6.8s-6.8-11.4-6.8-20.5V19.1h20.9V49c0,4.5.8,7.7,2.5,9.8s4.1,3.1,7.4,3.1a10.08,10.08,0,0,0,8-3.4c2.1-2.3,3.2-5.9,3.2-10.7V19.1Zm35.1,60.6A65.63,65.63,0,0,1,239.8,78a43.32,43.32,0,0,1-11.7-4.5l6.3-14.3a37.75,37.75,0,0,0,9.7,4.1,42.24,42.24,0,0,0,11.1,1.4c3.4,0,5.8-.3,7.2-1a3.35,3.35,0,0,0,2.2-3.1c0-1.3-.9-2.2-2.6-2.8a53.92,53.92,0,0,0-8.1-1.7,92.22,92.22,0,0,1-12.2-2.3,18.89,18.89,0,0,1-8.6-5.3q-3.6-3.9-3.6-10.8a15.81,15.81,0,0,1,3.4-10.1,21.7,21.7,0,0,1,9.9-7c4.4-1.8,9.6-2.6,15.7-2.6a62.74,62.74,0,0,1,12.9,1.3A38.19,38.19,0,0,1,282.1,23l-6.3,14.2a35.21,35.21,0,0,0-17.2-4.4c-3.3,0-5.7.4-7.3,1.2s-2.3,1.7-2.3,3,.8,2.4,2.5,3a69.8,69.8,0,0,0,8.4,1.7,95.41,95.41,0,0,1,12.2,2.5,18.8,18.8,0,0,1,8.4,5.3c2.4,2.5,3.6,6,3.6,10.6a16.2,16.2,0,0,1-3.4,10.1,22.66,22.66,0,0,1-10.1,6.9A45.27,45.27,0,0,1,254.5,79.7Zm60.2,0A65.63,65.63,0,0,1,300,78a43.32,43.32,0,0,1-11.7-4.5l6.3-14.3a37.75,37.75,0,0,0,9.7,4.1,42.24,42.24,0,0,0,11.1,1.4c3.4,0,5.8-.3,7.2-1a3.35,3.35,0,0,0,2.2-3.1c0-1.3-.9-2.2-2.6-2.8a53.92,53.92,0,0,0-8.1-1.7,92.22,92.22,0,0,1-12.2-2.3,18.89,18.89,0,0,1-8.6-5.3q-3.6-3.9-3.6-10.8a15.81,15.81,0,0,1,3.4-10.1,21.7,21.7,0,0,1,9.9-7c4.4-1.8,9.6-2.6,15.7-2.6a62.74,62.74,0,0,1,12.9,1.3A38.19,38.19,0,0,1,342.3,23L336,37.2a35.21,35.21,0,0,0-17.2-4.4c-3.3,0-5.7.4-7.3,1.2s-2.3,1.7-2.3,3,.8,2.4,2.5,3a69.8,69.8,0,0,0,8.4,1.7,95.41,95.41,0,0,1,12.2,2.5,18.8,18.8,0,0,1,8.4,5.3c2.4,2.5,3.6,6,3.6,10.6a16.2,16.2,0,0,1-3.4,10.1,22.66,22.66,0,0,1-10.1,6.9A46.06,46.06,0,0,1,314.7,79.7Z"/></g></g></svg>