<svg xmlns="http://www.w3.org/2000/svg" xmlns:xlink="http://www.w3.org/1999/xlink" viewBox="0 0 110.25 100.25"><defs><style>.cls-1,.cls-3{fill:none;}.cls-2{clip-path:url(#clip-path);}.cls-3{stroke:#828282;stroke-miterlimit:10;stroke-width:0.75px;}</style><clipPath id="clip-path"><rect class="cls-1" x="0.08" y="0.07" width="110" height="100"/></clipPath></defs><title>Recurso 3</title><g id="Capa_2" data-name="Capa 2"><g id="Layer_1" data-name="Layer 1"><g class="cls-2"><path class="cls-3" d="M71.28,99.87a38.6,38.6,0,1,0-38.6-38.6A38.62,38.62,0,0,0,71.28,99.87Z"/><path class="cls-3" d="M69.28,99.87a38.6,38.6,0,1,0-38.6-38.6A38.62,38.62,0,0,0,69.28,99.87Z"/><path class="cls-3" d="M67.28,99.87a38.6,38.6,0,1,0-38.6-38.6A38.62,38.62,0,0,0,67.28,99.87Z"/><path class="cls-3" d="M65.28,99.87a38.6,38.6,0,1,0-38.6-38.6A38.62,38.62,0,0,0,65.28,99.87Z"/><path class="cls-3" d="M63.18,99.87a38.6,38.6,0,1,0-38.6-38.6A38.62,38.62,0,0,0,63.18,99.87Z"/><path class="cls-3" d="M61.18,99.87a38.6,38.6,0,1,0-38.6-38.6A38.62,38.62,0,0,0,61.18,99.87Z"/><path class="cls-3" d="M59.18,99.87a38.6,38.6,0,1,0-38.6-38.6A38.62,38.62,0,0,0,59.18,99.87Z"/><path class="cls-3" d="M57.18,99.87a38.6,38.6,0,1,0-38.6-38.6A38.62,38.62,0,0,0,57.18,99.87Z"/><path class="cls-3" d="M55.08,99.87a38.6,38.6,0,1,0-38.6-38.6A38.62,38.62,0,0,0,55.08,99.87Z"/><path class="cls-3" d="M53.08,99.87a38.6,38.6,0,1,0-38.6-38.6A38.62,38.62,0,0,0,53.08,99.87Z"/><path class="cls-3" d="M51.08,99.87a38.6,38.6,0,1,0-38.6-38.6A38.62,38.62,0,0,0,51.08,99.87Z"/><path class="cls-3" d="M49,99.87a38.6,38.6,0,1,0-38.6-38.6A38.62,38.62,0,0,0,49,99.87Z"/><path class="cls-3" d="M47,99.87a38.6,38.6,0,1,0-38.6-38.6A38.62,38.62,0,0,0,47,99.87Z"/><path class="cls-3" d="M45,99.87a38.6,38.6,0,1,0-38.6-38.6A38.62,38.62,0,0,0,45,99.87Z"/><path class="cls-3" d="M43,99.87a38.6,38.6,0,1,0-38.6-38.6A38.62,38.62,0,0,0,43,99.87Z"/><path class="cls-3" d="M41,99.87a38.6,38.6,0,1,0-38.6-38.6A38.62,38.62,0,0,0,41,99.87Z"/><path class="cls-3" d="M39,99.87A38.6,38.6,0,1,0,.38,61.27,38.62,38.62,0,0,0,39,99.87Z"/><path class="cls-3" d="M40.08,98.47a38.6,38.6,0,1,0-38.6-38.6A38.62,38.62,0,0,0,40.08,98.47Z"/><path class="cls-3" d="M41.08,97.07a38.6,38.6,0,1,0-38.6-38.6A38.62,38.62,0,0,0,41.08,97.07Z"/><path class="cls-3" d="M42.18,95.67a38.6,38.6,0,1,0-38.6-38.6A38.62,38.62,0,0,0,42.18,95.67Z"/><path class="cls-3" d="M43.28,94.27a38.6,38.6,0,1,0-38.6-38.6A38.62,38.62,0,0,0,43.28,94.27Z"/><path class="cls-3" d="M44.38,92.87a38.6,38.6,0,1,0-38.6-38.6A38.62,38.62,0,0,0,44.38,92.87Z"/><path class="cls-3" d="M45.48,91.47a38.6,38.6,0,1,0-38.6-38.6A38.62,38.62,0,0,0,45.48,91.47Z"/><path class="cls-3" d="M46.58,90.07A38.6,38.6,0,1,0,8,51.47,38.62,38.62,0,0,0,46.58,90.07Z"/><path class="cls-3" d="M47.68,88.67a38.6,38.6,0,1,0-38.6-38.6A38.62,38.62,0,0,0,47.68,88.67Z"/><path class="cls-3" d="M48.78,87.27a38.6,38.6,0,1,0-38.6-38.6A38.62,38.62,0,0,0,48.78,87.27Z"/><path class="cls-3" d="M49.88,85.87a38.6,38.6,0,1,0-38.6-38.6A38.62,38.62,0,0,0,49.88,85.87Z"/><path class="cls-3" d="M51,84.47a38.6,38.6,0,1,0-38.6-38.6A38.62,38.62,0,0,0,51,84.47Z"/><path class="cls-3" d="M52.08,83.17a38.6,38.6,0,1,0-38.6-38.6A38.62,38.62,0,0,0,52.08,83.17Z"/><path class="cls-3" d="M53.08,81.67a38.6,38.6,0,1,0-38.6-38.6A38.62,38.62,0,0,0,53.08,81.67Z"/><path class="cls-3" d="M54.28,80.27a38.6,38.6,0,1,0-38.6-38.6A38.62,38.62,0,0,0,54.28,80.27Z"/><path class="cls-3" d="M55.38,78.87a38.6,38.6,0,1,0-38.6-38.6A38.62,38.62,0,0,0,55.38,78.87Z"/><path class="cls-3" d="M56.48,77.57A38.6,38.6,0,1,0,17.88,39,38.62,38.62,0,0,0,56.48,77.57Z"/></g></g></g></svg>