<svg xmlns="http://www.w3.org/2000/svg" viewBox="0 0 228 188.69"><defs><style>.cls-1{font-size:123.61px;font-family:Montserrat-ExtraBold, Montserrat;font-weight:800;letter-spacing:-0.03em;}.cls-1,.cls-3{fill:#073959;}.cls-2{letter-spacing:0em;}</style></defs><title>Recurso 6</title><g id="Capa_2" data-name="Capa 2"><g id="Layer_1" data-name="Layer 1"><text class="cls-1" transform="translate(40.74 137.8)">T<tspan class="cls-2" x="74.66" y="0">x</tspan></text><path class="cls-3" d="M45.06,188.69c-9.53,0-16.74-2.34-21.41-6.94s-7-11.61-7-20.85V113.06c0-8.64-4.39-13.4-12.36-13.4H0V89H4.28c8,0,12.36-4.75,12.36-13.39V27.79c0-9.24,2.36-16.26,7-20.86S35.53,0,45.06,0h6.15V10.43H49c-11.86,0-18.39,6.83-18.39,19.23V75.21c0,5.1-.76,8.9-2.25,11.31s-3.73,3.92-7.08,5L12,94.34l9.25,2.87c3.34,1,5.66,2.65,7.07,5s2.26,6.22,2.26,11.32V159c0,12.4,6.53,19.23,18.39,19.23h2.21v10.43Z"/><path class="cls-3" d="M177,188.69V178.26h2c12.13,0,18.81-6.83,18.81-19.23V113.48c0-5.24.73-9.09,2.16-11.43s3.63-3.81,7-4.84l9.24-2.87-9.24-2.86c-3.34-1-5.61-2.62-7-4.83s-2.17-6.2-2.17-11.44V29.66c0-12.4-6.68-19.23-18.81-19.23h-2V0h6.15c9.54,0,16.78,2.34,21.53,7s7.09,11.6,7.09,20.84V75.63c0,11.65,7.62,13.39,12.16,13.39H228V99.66h-4.06c-4.54,0-12.16,1.74-12.16,13.4V160.9c0,9.23-2.39,16.24-7.1,20.84s-12,6.95-21.52,6.95Z"/></g></g></svg>