<svg xmlns="http://www.w3.org/2000/svg" viewBox="0 0 81 63"><title>Recurso 7</title><g id="Capa_2" data-name="Capa 2"><g id="Layer_1" data-name="Layer 1"><path d="M54,59.31q9-2.09,9.34-10.62V41.63q0-7.43,8-10.11-8.06-2.64-8-10.11V14.89q0-9-9.3-11.2L55.73,0q7.88,1.61,11.84,5.23a12.4,12.4,0,0,1,4,9.53V21.5q0,7.68,9.43,7.67v4.66q-9.44,0-9.43,7.8v6.48a12.34,12.34,0,0,1-4,9.66q-4,3.63-11.79,5.23Zm-28.17,0q-8.64-2.09-8.94-10.62V41.63q0-7.43-7.7-10.11,7.7-2.64,7.7-10.11V14.89q0-9,8.89-11.2L24.17,0Q16.64,1.61,12.85,5.23A12.7,12.7,0,0,0,9,14.76V21.5q0,7.68-9,7.67v4.66q9,0,9,7.8v6.48a12.62,12.62,0,0,0,3.87,9.66c2.56,2.42,6.31,4.16,11.28,5.23ZM49.79,18H31.21A4.2,4.2,0,0,1,27,13.79v-.58A4.2,4.2,0,0,1,31.21,9H49.79A4.2,4.2,0,0,1,54,13.21v.58A4.2,4.2,0,0,1,49.79,18Zm0,18H31.21A4.2,4.2,0,0,1,27,31.79v-.58A4.2,4.2,0,0,1,31.21,27H49.79A4.2,4.2,0,0,1,54,31.21v.58A4.2,4.2,0,0,1,49.79,36Zm0,18H31.21A4.2,4.2,0,0,1,27,49.79v-.58A4.2,4.2,0,0,1,31.21,45H49.79A4.2,4.2,0,0,1,54,49.21v.58A4.2,4.2,0,0,1,49.79,54Z"/></g></g></svg>